<svg width="24" height="24" viewBox="0 0 24 24" fill="none" xmlns="http://www.w3.org/2000/svg">
<path d="M12.5156 22.2187L12.4781 22.2126C12.4834 22.2167 12.4896 22.2194 12.4961 22.2205C12.5026 22.2215 12.5094 22.2209 12.5156 22.2187Z" fill="white"/>
<path d="M21.0422 8.80219C21.0315 8.74563 21.0022 8.69426 20.959 8.65625C20.9158 8.61823 20.8611 8.59574 20.8036 8.59235C20.7462 8.58895 20.6892 8.60485 20.6418 8.63752C20.5944 8.67019 20.5593 8.71775 20.542 8.77266C20.5255 8.82479 20.4928 8.87033 20.4488 8.90276C20.4048 8.93518 20.3516 8.95281 20.2969 8.95313H19.5717C19.5248 8.95317 19.4788 8.94037 19.4386 8.91609L18.3895 8.28703C18.3494 8.26276 18.3033 8.24995 18.2564 8.25H16.5783C16.5272 8.24995 16.4773 8.26512 16.4348 8.29359L14.3653 9.67313C14.3295 9.69695 14.3003 9.72931 14.2801 9.76728C14.26 9.80526 14.2496 9.84765 14.25 9.89063V11.8472C14.2499 11.8941 14.2627 11.9401 14.2868 11.9803C14.3109 12.0205 14.3455 12.0534 14.3869 12.0755L17.1005 13.5239C17.1412 13.5458 17.1754 13.5783 17.1995 13.6178C17.2235 13.6574 17.2366 13.7026 17.2373 13.7489L17.25 14.85C17.2507 14.8956 17.2635 14.9402 17.2869 14.9793C17.3104 15.0184 17.3437 15.0506 17.3836 15.0727L18.4739 15.6759C18.5143 15.6984 18.548 15.7312 18.5715 15.771C18.595 15.8108 18.6074 15.8561 18.6075 15.9023V18.1805C18.6075 18.2303 18.6219 18.279 18.6489 18.3208C18.6759 18.3626 18.7144 18.3958 18.7598 18.4163C18.8052 18.4367 18.8555 18.4437 18.9047 18.4363C18.9539 18.4289 19 18.4075 19.0373 18.3745C19.477 17.9873 20.1075 17.422 20.1914 17.2927C20.3302 17.078 20.4603 16.8581 20.5819 16.6331C20.8336 16.1669 21.0468 15.6809 21.2194 15.18C21.8137 13.4592 21.3441 10.3659 21.0422 8.80219Z" fill="white"/>
<path d="M13.425 14.1938L10.5502 12.0375C10.5177 12.0132 10.4782 12 10.4377 12H9.07359C9.05026 12 9.02715 11.9955 9.00559 11.9865C8.98403 11.9776 8.96445 11.9645 8.94797 11.948L8.30484 11.3049C8.28742 11.2874 8.26673 11.2736 8.24397 11.2642C8.22121 11.2548 8.19682 11.25 8.17219 11.25H5.67891C5.64377 11.25 5.60942 11.2396 5.5802 11.2201C5.55099 11.2006 5.52821 11.1728 5.51477 11.1403C5.50132 11.1079 5.4978 11.0722 5.50466 11.0377C5.51151 11.0032 5.52843 10.9716 5.55328 10.9467L5.94797 10.552C5.96445 10.5355 5.98403 10.5224 6.00559 10.5135C6.02715 10.5046 6.05026 10.5 6.07359 10.5H7.59094C7.67266 10.5 7.75215 10.4733 7.8173 10.424C7.88245 10.3747 7.92971 10.3054 7.95188 10.2267L8.27484 9.07829C8.28173 9.05361 8.2936 9.0306 8.30973 9.01069C8.32585 8.99078 8.34589 8.97438 8.36859 8.96251L9.65625 8.2997C9.68522 8.28472 9.70952 8.26206 9.72647 8.2342C9.74342 8.20634 9.75237 8.17434 9.75234 8.14173V7.55579C9.7524 7.51944 9.76351 7.48396 9.78422 7.45407L10.4686 6.46876C10.4891 6.43916 10.5182 6.41658 10.552 6.40407L11.5097 6.04454C11.5436 6.03185 11.5728 6.00911 11.5934 5.97937C11.614 5.94963 11.625 5.91431 11.625 5.87814V5.34376C11.625 5.31446 11.6178 5.28561 11.6039 5.25977C11.5901 5.23393 11.5702 5.2119 11.5458 5.19563L10.5858 4.5572C10.5594 4.53984 10.5289 4.52975 10.4974 4.52794C10.4659 4.52613 10.4344 4.53267 10.4062 4.54689L9.09937 5.20032C9.06948 5.21508 9.03603 5.22111 9.00286 5.21771C8.96969 5.21431 8.93815 5.20162 8.91187 5.1811L8.29219 4.69126C8.27104 4.67425 8.25406 4.65264 8.24254 4.62807C8.23102 4.6035 8.22527 4.57662 8.22572 4.54949C8.22617 4.52236 8.23282 4.49568 8.24515 4.47151C8.25748 4.44734 8.27517 4.4263 8.29688 4.41001L8.80031 4.03923C8.8231 4.02251 8.84156 4.00059 8.85415 3.97528C8.86674 3.94998 8.8731 3.92203 8.87269 3.89377C8.87227 3.8655 8.8651 3.83775 8.85178 3.81283C8.83846 3.7879 8.81936 3.76652 8.79609 3.75048L8.01188 3.20345C7.98473 3.18433 7.95275 3.17323 7.9196 3.17141C7.88645 3.16959 7.85346 3.17711 7.82438 3.19314C7.54078 3.34829 6.70875 3.80767 6.41344 4.01438C5.04708 4.97257 3.94747 6.26319 3.21844 7.76439C3.13313 7.94064 3.02766 8.12017 3.01734 8.31376C3.00703 8.50735 2.85516 8.93954 2.79188 9.11439C2.78334 9.13802 2.77993 9.1632 2.78187 9.18825C2.78381 9.2133 2.79105 9.23766 2.80313 9.2597L4.47609 12.3338C4.49115 12.3617 4.51351 12.385 4.54078 12.4013L6.30094 13.4578C6.32377 13.4714 6.34325 13.49 6.35794 13.5121C6.37263 13.5343 6.38214 13.5595 6.38578 13.5858L6.73828 16.1424C6.74173 16.1669 6.75021 16.1904 6.7632 16.2114C6.77619 16.2325 6.7934 16.2506 6.81375 16.2647L8.18719 17.2088C8.22697 17.2361 8.25468 17.2777 8.26453 17.325L8.99297 20.7844C8.99705 20.8047 9.00484 20.8241 9.01594 20.8416C9.08437 20.9522 9.35719 21.3572 9.68625 21.4172C9.65578 21.4256 9.62859 21.4449 9.59812 21.4538C9.67717 21.4677 9.75541 21.4858 9.8325 21.5081C9.92625 21.5334 10.02 21.555 10.1137 21.5752C10.2605 21.6042 10.275 21.6267 10.3453 21.4964C10.4391 21.322 10.5464 21.262 10.6266 21.2405C10.6596 21.2329 10.6899 21.2161 10.7139 21.192C10.7378 21.168 10.7545 21.1376 10.762 21.1045L11.2341 18.9164C11.244 18.8706 11.2707 18.8301 11.3091 18.803L13.4184 17.3077C13.443 17.2903 13.4629 17.2674 13.4767 17.2407C13.4905 17.214 13.4977 17.1844 13.4977 17.1544V14.3438C13.4979 14.3148 13.4915 14.2863 13.4789 14.2602C13.4663 14.2342 13.4479 14.2115 13.425 14.1938Z" fill="white"/>
<path d="M12.2812 2.25C12.2812 2.25 12.1102 2.25984 12.0755 2.26078C11.8214 2.26828 11.568 2.28578 11.3152 2.31328C10.3936 2.41326 9.49098 2.64451 8.63484 3C8.74875 3.07875 8.55281 3.15094 8.55281 3.15094L8.85937 3.75H10.5L11.625 4.3125L12.6094 3.75L12.2812 2.25Z" fill="white"/>
<path d="M16.6045 5.6278L17.3597 4.97155C17.3833 4.95103 17.4014 4.92493 17.4124 4.89561C17.4234 4.86629 17.4268 4.8347 17.4224 4.80371C17.4181 4.77272 17.406 4.74331 17.3873 4.71818C17.3687 4.69305 17.344 4.67299 17.3156 4.65983L16.4339 4.25061C16.3891 4.22972 16.3379 4.22735 16.2914 4.24403C16.2448 4.26071 16.2068 4.29508 16.1855 4.33967L15.8222 5.09952C15.8024 5.14106 15.7986 5.18842 15.8115 5.23259C15.8244 5.27676 15.853 5.31465 15.892 5.33905L16.3823 5.64561C16.4164 5.66681 16.4564 5.67651 16.4964 5.67331C16.5364 5.6701 16.5743 5.65415 16.6045 5.6278Z" fill="white"/>
<path d="M20.1394 6.5939L19.8661 6.17203C19.8619 6.16546 19.8581 6.1589 19.8544 6.15187C19.8052 6.05109 19.3978 5.22843 19.0575 4.90922C18.802 4.66781 18.7294 4.73718 18.7092 4.79062C18.6977 4.82017 18.6784 4.84608 18.6534 4.86562L17.3016 5.95828C17.2683 5.98521 17.2267 5.99994 17.1839 6H16.4841C16.4594 5.99998 16.435 6.00481 16.4123 6.01422C16.3895 6.02363 16.3688 6.03743 16.3514 6.05484L15.7889 6.61734C15.7715 6.63475 15.7576 6.65543 15.7482 6.67819C15.7388 6.70096 15.7339 6.72536 15.7339 6.75C15.7339 6.77464 15.7388 6.79904 15.7482 6.8218C15.7576 6.84456 15.7715 6.86524 15.7889 6.88265L16.3514 7.44515C16.3688 7.46256 16.3895 7.47636 16.4123 7.48577C16.435 7.49518 16.4594 7.50002 16.4841 7.5H20.0077C20.033 7.50002 20.058 7.49492 20.0813 7.485C20.1046 7.47508 20.1256 7.46056 20.1431 7.44229C20.1607 7.42403 20.1743 7.40241 20.1832 7.37873C20.1922 7.35505 20.1962 7.32981 20.1952 7.30453L20.1694 6.68812C20.168 6.6546 20.1576 6.62206 20.1394 6.5939Z" fill="white"/>
<path d="M12 3.375C13.9954 3.37483 15.9292 4.06657 17.4718 5.33235C19.0144 6.59812 20.0704 8.35962 20.4599 10.3167C20.8493 12.2738 20.5481 14.3053 19.6076 16.0652C18.6671 17.8251 17.1454 19.2045 15.3019 19.9682C13.4584 20.732 11.4071 20.8329 9.49757 20.2538C7.58801 19.6747 5.93832 18.4513 4.8296 16.7923C3.72088 15.1332 3.22173 13.141 3.4172 11.1551C3.61266 9.16928 4.49065 7.31264 5.90156 5.90156C6.70049 5.09807 7.65087 4.46104 8.69767 4.02735C9.74448 3.59366 10.8669 3.37193 12 3.375ZM12 1.5C6.20156 1.5 1.5 6.20156 1.5 12C1.5 17.7984 6.20156 22.5 12 22.5C17.7984 22.5 22.5 17.7984 22.5 12C22.5 6.20156 17.7984 1.5 12 1.5Z" fill="white"/>
</svg>
