<svg width="14" height="13" viewBox="0 0 14 13" fill="none" xmlns="http://www.w3.org/2000/svg">
<path d="M12.9111 3.39998H11.4263V0.892021C11.4263 0.652714 11.2173 0.458679 10.9596 0.458679H3.04041C2.78269 0.458679 2.57373 0.652689 2.57373 0.892021V3.39998H1.08888C0.488469 3.39998 0 3.85358 0 4.41111V8.77073C0 9.32826 0.488469 9.78184 1.08888 9.78184H2.57381V12.108C2.57381 12.3473 2.78275 12.5413 3.04049 12.5413H10.9595C11.2172 12.5413 11.4262 12.3473 11.4262 12.108V9.78184H12.9111C13.5115 9.78184 14 9.32826 14 8.77073V4.41111C14 3.85361 13.5115 3.39998 12.9111 3.39998ZM3.50705 1.32536H10.4929V3.39998H3.50705V1.32536ZM10.4928 11.6746H3.50716C3.50716 11.59 3.50716 8.23413 3.50716 8.12939H10.4929C10.4928 8.23677 10.4928 11.5932 10.4928 11.6746ZM10.9596 5.9445H9.7717C9.51398 5.9445 9.30502 5.75049 9.30502 5.51116C9.30502 5.27183 9.51396 5.07782 9.7717 5.07782H10.9596C11.2173 5.07782 11.4263 5.27183 11.4263 5.51116C11.4263 5.75049 11.2173 5.9445 10.9596 5.9445Z" fill="#393939"/>
</svg>
