<svg width="26" height="24" viewBox="0 0 26 24" fill="none" xmlns="http://www.w3.org/2000/svg">
<path d="M15.296 1.95385C15.296 1.22879 14.7061 0.638916 13.9811 0.638916H12.0189C11.2939 0.638916 10.704 1.22879 10.704 1.95385V3.91974H15.296V1.95385Z" fill="none"/>
<path d="M13.1926 8.86572L20.8146 10.8573V5.94219C20.8146 5.66716 20.5908 5.44342 20.3158 5.44342H5.68426C5.40923 5.44342 5.18549 5.66716 5.18549 5.94219V10.8573L12.8075 8.86572C12.9337 8.83276 13.0663 8.83276 13.1926 8.86572Z" fill="none"/>
<path d="M25.2383 21.8377C24.3976 21.8377 24.0184 21.6488 23.5382 21.4097C23.3128 21.2974 23.0751 21.1791 22.7914 21.0783C22.3976 20.9383 21.915 20.8321 21.2536 20.8228L24.0426 13.8021C24.1043 13.6354 24.0549 13.4966 24.0197 13.4284C23.9843 13.3597 23.8988 13.2375 23.7245 13.192L13 10.3898L2.27557 13.192C2.10119 13.2375 2.01572 13.3597 1.98033 13.4284C1.94514 13.4967 1.89573 13.6356 1.95763 13.8024L4.74029 20.8229C4.07922 20.8328 3.5971 20.9397 3.20355 21.0802C2.92227 21.1806 2.68609 21.2982 2.46209 21.4097C1.98185 21.6488 1.60257 21.8377 0.761782 21.8377C0.34111 21.8377 6.29425e-05 22.1787 6.29425e-05 22.5994C6.29425e-05 23.0201 0.34111 23.3611 0.761782 23.3611C1.96083 23.3611 2.58788 23.0489 3.14109 22.7735C3.35665 22.6662 3.55211 22.5692 3.77783 22.4947C4.05505 22.4031 4.37797 22.3456 4.8414 22.3456C4.94717 22.3456 5.04559 22.3486 5.13791 22.3543C5.77917 22.3939 6.1219 22.5645 6.5417 22.7735C7.09491 23.049 7.72196 23.3612 8.92101 23.3612C10.12 23.3612 10.747 23.049 11.3003 22.7735C11.7805 22.5345 12.1597 22.3456 13.0004 22.3456C13.8411 22.3456 14.2203 22.5344 14.7005 22.7735C15.2537 23.049 15.8807 23.3612 17.0797 23.3612C18.2787 23.3612 18.9057 23.049 19.4589 22.7735C19.8801 22.5639 20.2237 22.3929 20.8688 22.3539C20.9593 22.3485 21.0556 22.3456 21.1591 22.3456C21.6174 22.3456 21.9383 22.402 22.2134 22.4918C22.4429 22.5667 22.6408 22.6648 22.8592 22.7735C23.4124 23.049 24.0394 23.3612 25.2384 23.3612C25.6591 23.3612 26.0001 23.0201 26.0001 22.5995C26.0001 22.1788 25.659 21.8377 25.2383 21.8377ZM5.95782 14.288L12.8075 12.4983C12.9337 12.4653 13.0663 12.4653 13.1926 12.4983L20.0422 14.288C20.4492 14.3943 20.693 14.8105 20.5866 15.2176C20.4972 15.56 20.1883 15.7869 19.8502 15.7869C19.7865 15.7869 19.7217 15.7788 19.6571 15.762L13 14.0226L6.34295 15.762C5.93594 15.8683 5.51973 15.6246 5.4134 15.2176C5.30706 14.8105 5.55081 14.3943 5.95782 14.288Z" fill="none"/>
</svg>
