<svg width="327" height="111" viewBox="0 0 327 111" fill="none" xmlns="http://www.w3.org/2000/svg">
<g clip-path="url(#clip0_11_43)">
<path fill-rule="evenodd" clip-rule="evenodd" d="M47.0067 42.6235C58.5199 53.3258 71.0381 61.752 82.6565 61.6333C84.439 61.6139 84.7321 62.5278 84.7434 64.5998C84.808 77.1369 76.1422 90.2924 68.2416 96.6853C61.8631 96.5815 54.6437 96.5221 47.0045 96.5221H46.8449V51.6144H46.8336C37.3134 60.4672 26.9625 67.4352 17.3563 67.337C15.885 67.3177 15.6383 68.0775 15.6293 69.7936C15.5806 80.3647 23.0331 91.4653 29.6628 96.6328C28.3342 96.6488 27.0349 96.6682 25.7719 96.6898C17.8758 90.3004 9.20213 77.1415 9.26437 64.6044C9.27795 62.5278 9.57107 61.6139 11.3547 61.6379C22.9663 61.752 35.4856 53.3304 46.9932 42.628H47.0124" fill="#1955DB"/>
<path fill-rule="evenodd" clip-rule="evenodd" d="M46.9366 23.7095L69.8826 33.547C72.9383 34.8968 73.1907 36.8239 72.7334 39.2782L70.5164 52.9151L68.9546 41.7746C68.5166 39.4653 69.0858 38.1691 64.8667 36.8159L46.9366 31.0654L29.0087 36.8159C24.7896 38.1691 25.3622 39.4653 24.9231 41.7746L23.3613 52.9151L21.1431 39.2782C20.6904 36.8239 20.9349 34.8968 23.9962 33.547L46.9366 23.7095Z" fill="#1955DB"/>
<path fill-rule="evenodd" clip-rule="evenodd" d="M47.8726 10.4251L61.2068 16.1403C63.1081 16.9812 63.262 18.1792 62.9825 19.7058L61.6029 28.1833L60.6296 21.2564C60.358 19.8222 60.7122 19.0144 58.0877 18.1758L46.9401 14.6045L35.7947 18.1758C33.1702 19.019 33.5312 19.8268 33.2505 21.2564L32.2806 28.1833L30.901 19.7058C30.6181 18.1792 30.7743 16.9812 32.6756 16.1403L46.0098 10.4251L46.3991 6.05176L46.9401 0.00457764L47.4833 6.05176L47.8726 10.4251Z" fill="#1955DB"/>
<path fill-rule="evenodd" clip-rule="evenodd" d="M46.9989 96.5267C72.9564 96.5267 94 97.2022 94 98.034C94 98.8657 72.9564 99.5389 46.9989 99.5389C21.0413 99.5389 0 98.8635 0 98.034C0 97.2045 21.0413 96.5267 46.9989 96.5267Z" fill="#1955DB"/>
<path fill-rule="evenodd" clip-rule="evenodd" d="M46.9988 101.69C64.6189 101.69 78.8991 102.367 78.8991 103.197C78.8991 104.026 64.6189 104.706 46.9988 104.706C29.3788 104.706 15.0996 104.03 15.0996 103.197C15.0996 102.364 29.381 101.69 46.9988 101.69Z" fill="#1955DB"/>
<path fill-rule="evenodd" clip-rule="evenodd" d="M46.9989 107.988C56.0913 107.988 63.4657 108.66 63.4657 109.492C63.4657 110.323 56.0913 111 46.9989 111C37.9065 111 30.5366 110.325 30.5366 109.492C30.5366 108.659 37.9076 107.988 47.0012 107.988" fill="#1955DB"/>
</g>
<path d="M116.445 73C113.742 73 111.755 72.8808 110.484 72.6424C109.212 72.4039 108.576 72.1258 108.576 71.8079L110.961 66.6221C111.875 66.781 114.14 66.94 117.756 67.0989C121.412 67.2181 126.419 67.2777 132.777 67.2777H133.909C135.618 67.2777 136.83 66.9797 137.545 66.3836C138.261 65.7478 138.618 64.6948 138.618 63.2245V62.0324C138.618 60.6415 138.32 59.6481 137.724 59.052C137.168 58.4559 135.896 58.1579 133.909 58.1579H120.081C116.067 58.1579 113.146 57.4228 111.318 55.9525C109.49 54.4424 108.576 51.9985 108.576 48.6208V47.6671C108.576 45.9187 108.894 44.3093 109.53 42.839C110.206 41.3687 111.338 40.1964 112.928 39.3222C114.517 38.4082 116.703 37.9512 119.484 37.9512H135.697C138.4 37.9512 140.585 38.0903 142.254 38.3685C143.923 38.6466 144.758 38.9447 144.758 39.2626L143.566 44.2695C142.532 44.1503 140.188 44.0311 136.532 43.9119C132.876 43.7529 127.968 43.6735 121.809 43.6735L121.153 43.6139C119.325 43.6139 118.094 43.9914 117.458 44.7464C116.822 45.4617 116.484 46.3756 116.445 47.4883V48.5016C116.445 49.813 116.802 50.8064 117.517 51.4819C118.272 52.1178 119.504 52.4357 121.213 52.4357H134.446C136.989 52.4357 139.155 52.694 140.943 53.2105C142.731 53.7271 144.102 54.6808 145.056 56.0717C146.009 57.4228 146.486 59.4295 146.486 62.092V63.0457C146.486 66.026 145.711 68.4301 144.162 70.2581C142.652 72.086 140.009 73 136.234 73H116.445ZM153.631 73V34.3748H160.903V47.4883C162.572 47.1704 164.579 46.8922 166.923 46.6538C169.268 46.4154 171.95 46.2962 174.97 46.2962H177.95C179.937 46.2962 181.467 46.5743 182.54 47.1307C183.613 47.687 184.368 48.3824 184.805 49.2169C185.282 50.0514 185.56 50.9058 185.64 51.78C185.759 52.6145 185.818 53.3298 185.818 53.9258V73H178.546V53.8066C178.546 52.2171 177.593 51.4223 175.685 51.4223H162.691C161.936 51.4223 161.439 51.5018 161.201 51.6608C161.002 51.78 160.903 52.1376 160.903 52.7337V73H153.631ZM196.922 42.5409C195.451 42.5409 194.378 42.2429 193.703 41.6468C193.027 41.0508 192.689 40.0573 192.689 38.6665C192.689 37.2359 193.007 36.2425 193.643 35.6861C194.319 35.0901 195.412 34.792 196.922 34.792C198.432 34.792 199.524 35.0901 200.2 35.6861C200.875 36.2425 201.213 37.2359 201.213 38.6665C201.213 40.0176 200.875 41.011 200.2 41.6468C199.524 42.2429 198.432 42.5409 196.922 42.5409ZM193.286 73V46.2962H200.558V73H193.286ZM208.348 84.0869V46.2962H213.236L214.726 47.071C216.514 46.8724 218.64 46.6935 221.104 46.5346C223.607 46.3756 226.449 46.2962 229.628 46.2962H232.667C234.654 46.2962 236.184 46.5545 237.257 47.071C238.33 47.5876 239.085 48.2433 239.522 49.0381C239.999 49.8328 240.277 50.6673 240.357 51.5416C240.476 52.4158 240.536 53.2105 240.536 53.9258V65.3703C240.536 65.9664 240.476 66.7015 240.357 67.5758C240.277 68.4103 239.999 69.2448 239.522 70.0793C239.085 70.9138 238.33 71.6092 237.257 72.1655C236.184 72.7218 234.654 73 232.667 73H229.628C226.607 73 223.925 72.9205 221.581 72.7616C219.236 72.6026 217.249 72.4437 215.62 72.2847V84.0869H208.348ZM217.468 67.8738H230.402C231.157 67.8738 231.813 67.6751 232.369 67.2777C232.966 66.8804 233.264 66.2843 233.264 65.4895V53.8066C233.303 52.9324 233.085 52.3164 232.608 51.9588C232.171 51.6012 231.436 51.4223 230.402 51.4223H227.422C224.879 51.4223 222.614 51.4819 220.627 51.6012C218.68 51.6806 217.011 51.78 215.62 51.8992V66.026C215.62 66.9002 215.699 67.4367 215.858 67.6354C216.057 67.7943 216.594 67.8738 217.468 67.8738ZM258.62 73C255.798 73 253.593 72.6026 252.003 71.8079C250.414 71.0131 249.301 69.821 248.665 68.2315C248.03 66.6419 247.712 64.6749 247.712 62.3304V49.0381C247.712 45.2232 248.566 42.4217 250.275 40.6335C251.983 38.8056 254.765 37.8916 258.62 37.8916H276.561C279.303 37.8916 281.39 38.0506 282.82 38.3685C284.29 38.6466 285.026 38.9447 285.026 39.2626L283.833 44.2099C283.158 44.0907 281.151 43.9715 277.813 43.8523C274.515 43.6933 269.707 43.6139 263.388 43.6139H260.348C257.169 43.6139 255.58 45.0245 255.58 47.8459V63.0457C255.58 64.3968 255.918 65.4498 256.593 66.2048C257.308 66.9201 258.56 67.2777 260.348 67.2777H262.792C269.389 67.2777 274.495 67.2181 278.111 67.0989C281.767 66.94 284.032 66.781 284.906 66.6221L287.35 70.5561C287.35 70.7548 287.012 71.0528 286.337 71.4502C285.701 71.8476 284.509 72.2052 282.76 72.5231C281.012 72.841 278.489 73 275.19 73H258.62ZM299.384 73C296.721 73 294.734 72.4635 293.423 71.3906C292.151 70.3177 291.516 68.5692 291.516 66.1452V53.9258C291.516 53.3298 291.555 52.6145 291.635 51.78C291.754 50.9058 292.032 50.0514 292.469 49.2169C292.946 48.3824 293.721 47.687 294.794 47.1307C295.907 46.5743 297.437 46.2962 299.384 46.2962H315.835C317.822 46.2962 319.352 46.5743 320.425 47.1307C321.498 47.687 322.253 48.3824 322.69 49.2169C323.167 50.0514 323.445 50.9058 323.525 51.78C323.644 52.6145 323.703 53.3298 323.703 53.9258V65.3703C323.703 66.0856 323.644 66.8804 323.525 67.7546C323.445 68.6288 323.167 69.4633 322.69 70.2581C322.213 71.0528 321.438 71.7085 320.365 72.2251C319.292 72.7417 317.782 73 315.835 73H299.384ZM301.649 67.8738H313.57C315.517 67.8738 316.491 67.0791 316.491 65.4895V53.8066C316.491 52.2171 315.517 51.4223 313.57 51.4223H301.649C299.741 51.4223 298.788 52.2171 298.788 53.8066V65.4895C298.788 67.0791 299.741 67.8738 301.649 67.8738Z" fill="#444444"/>
<defs>
<clipPath id="clip0_11_43">
<rect width="94" height="111" fill="white"/>
</clipPath>
</defs>
</svg>
