<svg width="395" height="159" viewBox="0 0 395 159" fill="none" xmlns="http://www.w3.org/2000/svg">
<g clip-path="url(#clip0_11_33)">
<path fill-rule="evenodd" clip-rule="evenodd" d="M81.0067 66.6235C92.5199 77.3259 105.038 85.752 116.657 85.6333C118.439 85.6139 118.732 86.5279 118.743 88.5999C118.808 101.137 110.142 114.292 102.242 120.685C95.8631 120.581 88.6437 120.522 81.0045 120.522H80.8449V75.6144H80.8336C71.3134 84.4673 60.9625 91.4352 51.3563 91.3371C49.885 91.3177 49.6383 92.0776 49.6293 93.7936C49.5806 104.365 57.0331 115.465 63.6628 120.633C62.3342 120.649 61.0349 120.668 59.7719 120.69C51.8758 114.3 43.2021 101.142 43.2644 88.6044C43.278 86.5279 43.5711 85.6139 45.3547 85.6379C56.9663 85.752 69.4856 77.3304 80.9932 66.6281H81.0124" fill="#1955DB"/>
<path fill-rule="evenodd" clip-rule="evenodd" d="M80.9366 47.7095L103.883 57.547C106.938 58.8968 107.191 60.8239 106.733 63.2782L104.516 76.9151L102.955 65.7746C102.517 63.4653 103.086 62.1691 98.8667 60.8159L80.9366 55.0654L63.0087 60.8159C58.7896 62.1691 59.3622 63.4653 58.9231 65.7746L57.3613 76.9151L55.1431 63.2782C54.6904 60.8239 54.9349 58.8968 57.9962 57.547L80.9366 47.7095Z" fill="#1955DB"/>
<path fill-rule="evenodd" clip-rule="evenodd" d="M81.8726 34.4251L95.2068 40.1403C97.1081 40.9812 97.262 42.1792 96.9825 43.7058L95.6029 52.1833L94.6296 45.2564C94.358 43.8222 94.7122 43.0144 92.0877 42.1758L80.9401 38.6045L69.7947 42.1758C67.1702 43.019 67.5312 43.8268 67.2505 45.2564L66.2806 52.1833L64.901 43.7058C64.6181 42.1792 64.7743 40.9812 66.6756 40.1403L80.0098 34.4251L80.3991 30.0517L80.9401 24.0046L81.4833 30.0517L81.8726 34.4251Z" fill="#1955DB"/>
<path fill-rule="evenodd" clip-rule="evenodd" d="M80.9989 120.527C106.956 120.527 128 121.202 128 122.034C128 122.866 106.956 123.539 80.9989 123.539C55.0413 123.539 34 122.863 34 122.034C34 121.204 55.0413 120.527 80.9989 120.527Z" fill="#1955DB"/>
<path fill-rule="evenodd" clip-rule="evenodd" d="M80.9988 125.69C98.6189 125.69 112.899 126.367 112.899 127.197C112.899 128.026 98.6189 128.706 80.9988 128.706C63.3788 128.706 49.0996 128.03 49.0996 127.197C49.0996 126.364 63.381 125.69 80.9988 125.69Z" fill="#1955DB"/>
<path fill-rule="evenodd" clip-rule="evenodd" d="M80.9989 131.988C90.0913 131.988 97.4657 132.66 97.4657 133.492C97.4657 134.323 90.0913 135 80.9989 135C71.9065 135 64.5366 134.325 64.5366 133.492C64.5366 132.659 71.9076 131.988 81.0012 131.988" fill="#1955DB"/>
</g>
<path d="M150.445 97C147.742 97 145.755 96.8808 144.484 96.6424C143.212 96.4039 142.576 96.1258 142.576 95.8079L144.961 90.6221C145.875 90.781 148.14 90.94 151.756 91.0989C155.412 91.2181 160.419 91.2777 166.777 91.2777H167.909C169.618 91.2777 170.83 90.9797 171.545 90.3836C172.261 89.7478 172.618 88.6948 172.618 87.2245V86.0324C172.618 84.6415 172.32 83.6481 171.724 83.052C171.168 82.4559 169.896 82.1579 167.909 82.1579H154.081C150.067 82.1579 147.146 81.4228 145.318 79.9525C143.49 78.4424 142.576 75.9985 142.576 72.6208V71.6671C142.576 69.9187 142.894 68.3093 143.53 66.839C144.206 65.3687 145.338 64.1964 146.928 63.3222C148.517 62.4082 150.703 61.9512 153.484 61.9512H169.697C172.4 61.9512 174.585 62.0903 176.254 62.3685C177.923 62.6466 178.758 62.9447 178.758 63.2626L177.566 68.2695C176.532 68.1503 174.188 68.0311 170.532 67.9119C166.876 67.7529 161.968 67.6735 155.809 67.6735L155.153 67.6139C153.325 67.6139 152.094 67.9914 151.458 68.7464C150.822 69.4617 150.484 70.3756 150.445 71.4883V72.5016C150.445 73.813 150.802 74.8064 151.517 75.4819C152.272 76.1178 153.504 76.4357 155.213 76.4357H168.446C170.989 76.4357 173.155 76.694 174.943 77.2105C176.731 77.7271 178.102 78.6808 179.056 80.0717C180.009 81.4228 180.486 83.4295 180.486 86.092V87.0457C180.486 90.026 179.711 92.4301 178.162 94.2581C176.652 96.086 174.009 97 170.234 97H150.445ZM187.631 97V58.3748H194.903V71.4883C196.572 71.1704 198.579 70.8922 200.923 70.6538C203.268 70.4154 205.95 70.2962 208.97 70.2962H211.95C213.937 70.2962 215.467 70.5743 216.54 71.1307C217.613 71.687 218.368 72.3824 218.805 73.2169C219.282 74.0514 219.56 74.9058 219.64 75.78C219.759 76.6145 219.818 77.3298 219.818 77.9258V97H212.546V77.8066C212.546 76.2171 211.593 75.4223 209.685 75.4223H196.691C195.936 75.4223 195.439 75.5018 195.201 75.6608C195.002 75.78 194.903 76.1376 194.903 76.7337V97H187.631ZM230.922 66.5409C229.451 66.5409 228.378 66.2429 227.703 65.6468C227.027 65.0508 226.689 64.0573 226.689 62.6665C226.689 61.2359 227.007 60.2425 227.643 59.6861C228.319 59.0901 229.412 58.792 230.922 58.792C232.432 58.792 233.524 59.0901 234.2 59.6861C234.875 60.2425 235.213 61.2359 235.213 62.6665C235.213 64.0176 234.875 65.011 234.2 65.6468C233.524 66.2429 232.432 66.5409 230.922 66.5409ZM227.286 97V70.2962H234.558V97H227.286ZM242.348 108.087V70.2962H247.236L248.726 71.071C250.514 70.8724 252.64 70.6935 255.104 70.5346C257.607 70.3756 260.449 70.2962 263.628 70.2962H266.667C268.654 70.2962 270.184 70.5545 271.257 71.071C272.33 71.5876 273.085 72.2433 273.522 73.0381C273.999 73.8328 274.277 74.6673 274.357 75.5416C274.476 76.4158 274.536 77.2105 274.536 77.9258V89.3703C274.536 89.9664 274.476 90.7015 274.357 91.5758C274.277 92.4103 273.999 93.2448 273.522 94.0793C273.085 94.9138 272.33 95.6092 271.257 96.1655C270.184 96.7218 268.654 97 266.667 97H263.628C260.607 97 257.925 96.9205 255.581 96.7616C253.236 96.6026 251.249 96.4437 249.62 96.2847V108.087H242.348ZM251.468 91.8738H264.402C265.157 91.8738 265.813 91.6751 266.369 91.2777C266.966 90.8804 267.264 90.2843 267.264 89.4895V77.8066C267.303 76.9324 267.085 76.3164 266.608 75.9588C266.171 75.6012 265.436 75.4223 264.402 75.4223H261.422C258.879 75.4223 256.614 75.4819 254.627 75.6012C252.68 75.6806 251.011 75.78 249.62 75.8992V90.026C249.62 90.9002 249.699 91.4367 249.858 91.6354C250.057 91.7943 250.594 91.8738 251.468 91.8738ZM292.62 97C289.798 97 287.593 96.6026 286.003 95.8079C284.414 95.0131 283.301 93.821 282.665 92.2315C282.03 90.6419 281.712 88.6749 281.712 86.3304V73.0381C281.712 69.2232 282.566 66.4217 284.275 64.6335C285.983 62.8056 288.765 61.8916 292.62 61.8916H310.561C313.303 61.8916 315.39 62.0506 316.82 62.3685C318.29 62.6466 319.026 62.9447 319.026 63.2626L317.833 68.2099C317.158 68.0907 315.151 67.9715 311.813 67.8523C308.515 67.6933 303.707 67.6139 297.388 67.6139H294.348C291.169 67.6139 289.58 69.0245 289.58 71.8459V87.0457C289.58 88.3968 289.918 89.4498 290.593 90.2048C291.308 90.9201 292.56 91.2777 294.348 91.2777H296.792C303.389 91.2777 308.495 91.2181 312.111 91.0989C315.767 90.94 318.032 90.781 318.906 90.6221L321.35 94.5561C321.35 94.7548 321.012 95.0528 320.337 95.4502C319.701 95.8476 318.509 96.2052 316.76 96.5231C315.012 96.841 312.489 97 309.19 97H292.62ZM333.384 97C330.721 97 328.734 96.4635 327.423 95.3906C326.151 94.3177 325.516 92.5692 325.516 90.1452V77.9258C325.516 77.3298 325.555 76.6145 325.635 75.78C325.754 74.9058 326.032 74.0514 326.469 73.2169C326.946 72.3824 327.721 71.687 328.794 71.1307C329.907 70.5743 331.437 70.2962 333.384 70.2962H349.835C351.822 70.2962 353.352 70.5743 354.425 71.1307C355.498 71.687 356.253 72.3824 356.69 73.2169C357.167 74.0514 357.445 74.9058 357.525 75.78C357.644 76.6145 357.703 77.3298 357.703 77.9258V89.3703C357.703 90.0856 357.644 90.8804 357.525 91.7546C357.445 92.6288 357.167 93.4633 356.69 94.2581C356.213 95.0528 355.438 95.7085 354.365 96.2251C353.292 96.7417 351.782 97 349.835 97H333.384ZM335.649 91.8738H347.57C349.517 91.8738 350.491 91.0791 350.491 89.4895V77.8066C350.491 76.2171 349.517 75.4223 347.57 75.4223H335.649C333.741 75.4223 332.788 76.2171 332.788 77.8066V89.4895C332.788 91.0791 333.741 91.8738 335.649 91.8738Z" fill="#444444"/>
<defs>
<clipPath id="clip0_11_33">
<rect width="94" height="111" fill="white" transform="translate(34 24)"/>
</clipPath>
</defs>
</svg>
